<svg xmlns="http://www.w3.org/2000/svg" width="30.562" height="32" viewBox="0 0 30.562 32"><defs><style>.a{fill:#fff;}</style></defs><g transform="translate(-1.197 -0.5)"><g transform="translate(1.197 0.5)"><path class="a" d="M17.218,32.5A16,16,0,1,1,30.4,7.4a.689.689,0,0,1-1.133.785,14.625,14.625,0,1,0-1.077,17.994.689.689,0,0,1,1.033.911A16.049,16.049,0,0,1,17.218,32.5Z" transform="translate(-1.197 -0.5)"/><g transform="translate(25.883 5.358)"><path class="a" d="M26.124,8.189l4.532,2.786L30.8,5.657Z" transform="translate(-26.124 -5.657)"/></g></g><g transform="translate(16.715 7.759)"><path class="a" d="M24.331,24.3a.662.662,0,0,1-.471-.2l-7.635-7.634a.668.668,0,0,1-.2-.472V7.94a.667.667,0,0,1,1.334,0v7.784l7.44,7.439a.667.667,0,0,1-.472,1.139Z" transform="translate(-16.029 -7.274)"/></g></g></svg>