<svg xmlns="http://www.w3.org/2000/svg" width="32" height="32" viewBox="0 0 32 32"><defs><style>.a{opacity:0;}.b,.c{fill:#fff;}.b{opacity:0.679;}</style></defs><g transform="translate(-42 -373)"><g class="a" transform="translate(-531 -315)"><rect class="b" width="32" height="32" transform="translate(573 688)"/></g><g transform="translate(-469.971 283)"><g transform="translate(513.971 90)"><g transform="translate(5.855 5.475)"><g transform="translate(0 6.943)"><path class="c" d="M531.616,115.749h-8.271a3.89,3.89,0,0,1-3.885-3.886v-6.336a3.889,3.889,0,0,1,3.885-3.885h8.271a3.889,3.889,0,0,1,3.885,3.885v6.336A3.89,3.89,0,0,1,531.616,115.749Zm-8.271-13.136a2.918,2.918,0,0,0-2.914,2.914v6.336a2.918,2.918,0,0,0,2.914,2.914h8.271a2.918,2.918,0,0,0,2.914-2.914v-6.336a2.918,2.918,0,0,0-2.914-2.914Z" transform="translate(-519.46 -101.642)"/></g><g transform="translate(2.373)"><path class="c" d="M532.493,103.047a.485.485,0,0,1-.486-.485v-1.78a4.675,4.675,0,1,0-9.35,0v1.78a.486.486,0,0,1-.972,0v-1.78a5.647,5.647,0,1,1,11.294,0v1.78A.485.485,0,0,1,532.493,103.047Z" transform="translate(-521.685 -95.133)"/></g><g transform="translate(5.554 10.611)"><path class="c" d="M527.133,111.85a1.357,1.357,0,0,1-1.356-1.356v-.887a2.466,2.466,0,1,1,2.711,0v.887A1.357,1.357,0,0,1,527.133,111.85Zm0-5.8a1.494,1.494,0,0,0-.656,2.836.486.486,0,0,1,.272.436v1.169a.384.384,0,1,0,.768,0v-1.169a.486.486,0,0,1,.272-.436,1.494,1.494,0,0,0-.656-2.836Z" transform="translate(-524.667 -105.081)"/></g></g><path class="c" d="M527.846,122a.479.479,0,0,1-.145-.022,43.328,43.328,0,0,1-13.319-7.456.482.482,0,0,1-.164-.288,27.523,27.523,0,0,1,.758-11.051,19.926,19.926,0,0,0,.005-10.43.486.486,0,0,1,.462-.636c10.557,0,11.856-1.647,11.938-1.772a.486.486,0,0,1,.93,0c.083.125,1.381,1.772,11.938,1.772a.486.486,0,0,1,.462.636,19.926,19.926,0,0,0,.005,10.43,27.546,27.546,0,0,1,.758,11.051.482.482,0,0,1-.164.288,43.328,43.328,0,0,1-13.319,7.456A.479.479,0,0,1,527.846,122Zm-12.7-8.1a43.164,43.164,0,0,0,12.7,7.108,43.112,43.112,0,0,0,12.7-7.108,27.306,27.306,0,0,0-.763-10.449,20.862,20.862,0,0,1-.17-10.36c-8.026-.051-10.81-1.062-11.765-1.833-.955.77-3.739,1.781-11.765,1.833a20.848,20.848,0,0,1-.17,10.36A27.239,27.239,0,0,0,515.149,113.9Zm13.178-23.485h0Zm-.96,0h0Zm.96,0h0Zm-.96,0h0Zm.96,0Zm-.96,0Z" transform="translate(-513.971 -90)"/></g></g></g></svg>