<svg xmlns="http://www.w3.org/2000/svg" width="186" height="186" viewBox="0 0 186 186"><defs><style>.a{fill:#a7a7a7;}.b,.c{fill:#fff;}.c{font-size:18px;font-family:Roboto-Regular, Roboto;}</style></defs><rect class="a" width="186" height="186" rx="10"/><g transform="translate(-867 -537.049)"><g transform="translate(940.658 598.049)"><path class="b" d="M28.69,24.907h-5.4a.568.568,0,0,1,0-1.136h5.4a6.915,6.915,0,0,0,1.1-13.712.562.562,0,0,1-.457-.459,8.826,8.826,0,0,0-16.826-2.13.552.552,0,0,1-.655.312,5.692,5.692,0,0,0-1.571-.227A5.845,5.845,0,0,0,4.594,12.33a.559.559,0,0,1-.516.457,5.5,5.5,0,0,0,.274,10.984h6.775a.568.568,0,0,1,0,1.136H4.352A6.642,6.642,0,0,1,3.6,11.688a6.956,6.956,0,0,1,6.683-5.27,6.672,6.672,0,0,1,1.417.155A9.92,9.92,0,0,1,30.35,9.011a7.962,7.962,0,0,1,6.2,7.853A7.962,7.962,0,0,1,28.69,24.907Z" transform="translate(2.133 -1)"/><g transform="translate(13.122 10.498)"><path class="b" d="M19.165,31a.52.52,0,0,1-.521-.52V16.666a.52.52,0,0,1,.521-.52h1.407L16,10.809l-4.571,5.337h1.408a.52.52,0,0,1,.52.52V30.48a.52.52,0,1,1-1.04,0V17.186H10.3a.52.52,0,0,1-.4-.858l5.7-6.657a.537.537,0,0,1,.79,0l5.7,6.657a.52.52,0,0,1-.4.858H19.685V30.48A.52.52,0,0,1,19.165,31Z" transform="translate(-9.78 -9.498)"/></g></g><text class="c" transform="translate(960 657)"><tspan x="-52.559" y="0">Subir imagen</tspan><tspan x="-18.224" y="24">PNG</tspan></text></g></svg>