<svg xmlns="http://www.w3.org/2000/svg" width="42" height="42" viewBox="0 0 42 42"><defs><style>.a{fill:#63c3d1;}.b{fill:#fff;}</style></defs><circle class="a" cx="21" cy="21" r="21"/><path class="b" d="M7.471,19.331a.651.651,0,0,1-.651-.651,11.953,11.953,0,0,1,20.639-8.19V6.271a.651.651,0,0,1,.651-.651.664.664,0,0,1,.651.651v6.068a.651.651,0,0,1-1.2.365A10.638,10.638,0,0,0,8.122,18.68a.651.651,0,0,1-.651.651Z" transform="translate(2.128 1.698)"/><path class="b" d="M18.62,14.05a.625.625,0,0,1-.6-.417.651.651,0,0,1,.352-.846l6.146-2.448a.651.651,0,1,1,.482,1.2L18.894,14A.6.6,0,0,1,18.62,14.05Z" transform="translate(5.497 3.099)"/><path class="b" d="M8.981,29.561a.664.664,0,0,1-.651-.651V22.842a.651.651,0,0,1,1.2-.365A10.638,10.638,0,0,0,28.969,16.5a.651.651,0,0,1,1.3,0,11.953,11.953,0,0,1-20.639,8.19V28.91A.651.651,0,0,1,8.981,29.561Z" transform="translate(2.584 4.789)"/><path class="b" d="M8.98,22.592a.664.664,0,0,1-.6-.4.651.651,0,0,1,.365-.846l6.107-2.461a.654.654,0,0,1,.495,1.211L9.2,22.54a.534.534,0,0,1-.221.052Z" transform="translate(2.586 5.69)"/></svg>