<svg xmlns="http://www.w3.org/2000/svg" xmlns:xlink="http://www.w3.org/1999/xlink" width="16" height="16" viewBox="0 0 16 16"><defs><style>.a{fill:#fff;}.b{clip-path:url(#a);}.c{fill:none;opacity:0;}</style><clipPath id="a"><path class="a" d="M14.017.146a.5.5,0,0,0-.708,0L7.088,6.384.854.146A.5.5,0,0,0,.146.854l6.575,6.58a.488.488,0,0,0,.354.146.509.509,0,0,0,.354-.146L14,.854A.491.491,0,0,0,14.017.146Z" transform="translate(7.581) rotate(90)"/></clipPath></defs><g transform="translate(-268 -508)"><g transform="translate(265 524) rotate(-90)"><g transform="translate(0 3)"><g transform="translate(4.235 0.958)"><path class="a" d="M14.017.146a.5.5,0,0,0-.708,0L7.088,6.384.854.146A.5.5,0,0,0,.146.854l6.575,6.58a.488.488,0,0,0,.354.146.509.509,0,0,0,.354-.146L14,.854A.491.491,0,0,0,14.017.146Z" transform="translate(7.581) rotate(90)"/><g class="b"><g transform="translate(-4.187 -0.911)"><rect class="a" width="16.002" height="16.002"/></g></g></g></g></g><rect class="c" width="16" height="16" transform="translate(268 508)"/></g></svg>