<svg xmlns="http://www.w3.org/2000/svg" width="32.948" height="32.949" viewBox="0 0 32.948 32.949"><defs><style>.a{fill:#63d1a2;}</style></defs><g transform="matrix(0.966, -0.259, 0.259, 0.966, -4.328, 4.464)"><g transform="translate(14.568 0)"><g transform="translate(2.152 25.642)"><path class="a" d="M279.93,1264.78a1.081,1.081,0,0,0,.987-1.168l-.517-6.164a1.082,1.082,0,1,0-2.156.181l.518,6.164A1.081,1.081,0,0,0,279.93,1264.78Z" transform="translate(-278.24 -1256.456)"/></g><path class="a" d="M273.331,1186.149a1.081,1.081,0,0,0,.987-1.168l-.517-6.164a1.082,1.082,0,1,0-2.156.181l.517,6.164A1.081,1.081,0,0,0,273.331,1186.149Z" transform="translate(-271.642 -1177.825)"/></g><g transform="translate(0 14.568)"><g transform="translate(25.641)"><path class="a" d="M306.771,1225.176l6.164-.517a1.082,1.082,0,1,0-.181-2.156l-6.164.517a1.082,1.082,0,1,0,.181,2.156Z" transform="translate(-305.598 -1222.499)"/></g><g transform="translate(0 2.152)"><path class="a" d="M228.14,1231.775l6.164-.518a1.082,1.082,0,1,0-.181-2.156l-6.164.517a1.082,1.082,0,0,0,.181,2.156Z" transform="translate(-226.968 -1229.098)"/></g></g></g></svg>