<svg xmlns="http://www.w3.org/2000/svg" width="42" height="42" viewBox="0 0 42 42"><defs><style>.a{fill:#63c3d1;}.b{fill:#fff;}</style></defs><g transform="translate(0.378)"><circle class="a" cx="21" cy="21" r="21" transform="translate(-0.378)"/><path class="b" d="M28.055,15.016H8.731a.651.651,0,0,1-.651-.651V11.41a2.8,2.8,0,0,1,2.8-2.8H25.906a2.8,2.8,0,0,1,2.8,2.8v2.917a.651.651,0,0,1-.651.69Zm-18.672-1.3H27.4v-2.3a1.51,1.51,0,0,0-1.5-1.5H10.88a1.51,1.51,0,0,0-1.5,1.5Z" transform="translate(2.441 2.601)"/><path class="b" d="M25.138,29.418H10.919a.664.664,0,0,1-.651-.612L9.46,13.18a.652.652,0,1,1,1.3-.078l.781,14.961H24.487l.651-14.909a.664.664,0,0,1,.677-.625.651.651,0,0,1,.625.677L25.789,28.78a.651.651,0,0,1-.651.638Z" transform="translate(2.858 3.773)"/><path class="b" d="M16.151,25.127a.651.651,0,0,1-.651-.651V14.931a.651.651,0,0,1,1.3,0v9.545A.651.651,0,0,1,16.151,25.127Z" transform="translate(4.683 4.314)"/><path class="b" d="M19.071,25.127a.651.651,0,0,1-.651-.651V14.931a.651.651,0,0,1,1.3,0v9.545A.651.651,0,0,1,19.071,25.127Z" transform="translate(5.565 4.314)"/><path class="b" d="M13.271,25.127a.651.651,0,0,1-.651-.651V14.931a.651.651,0,0,1,1.3,0v9.545A.651.651,0,0,1,13.271,25.127Z" transform="translate(3.813 4.314)"/><path class="b" d="M20.258,10.547a.651.651,0,0,1-.651-.651V8.073a.26.26,0,0,0-.26-.26H14.5a.26.26,0,0,0-.26.26V9.9a.651.651,0,1,1-1.3,0V8.073A1.563,1.563,0,0,1,14.5,6.51h4.844a1.563,1.563,0,0,1,1.563,1.563V9.9A.651.651,0,0,1,20.258,10.547Z" transform="translate(3.909 1.967)"/></g></svg>