<svg xmlns="http://www.w3.org/2000/svg" width="32" height="32" viewBox="0 0 32 32"><defs><style>.a,.b{fill:#fff;}.a{opacity:0;}</style></defs><g transform="translate(-573 -688)"><rect class="a" width="32" height="32" transform="translate(573 688)"/><path class="b" d="M391.988,75.181c3.413,0,5.806-5.395,5.806-8.315a5.806,5.806,0,1,0-11.611,0C386.183,69.787,388.576,75.181,391.988,75.181Zm0-13.015a4.706,4.706,0,0,1,4.7,4.7c0,2.715-2.2,7.209-4.7,7.209s-4.7-4.493-4.7-7.209A4.706,4.706,0,0,1,391.988,62.166Zm0,25.487c-8.36,0-10.4-1.822-10.735-2.205.028-3.4.878-5.909,2.529-7.451a6.21,6.21,0,0,1,4.106-1.629l3.783,2.649a.553.553,0,0,0,.635,0l3.784-2.65h.013a6.169,6.169,0,0,1,4.078,1.617,6.506,6.506,0,0,1,.892,1.09,8.016,8.016,0,0,1,.985-.535,7.557,7.557,0,0,0-1.124-1.365,7.2,7.2,0,0,0-5.066-1.905.536.536,0,0,0-.276.1l-3.6,2.522-3.6-2.522a.54.54,0,0,0-.276-.1,7.2,7.2,0,0,0-5.066,1.905c-1.923,1.785-2.9,4.627-2.9,8.446a.563.563,0,0,0,.055.242c.144.3,1.7,2.9,11.787,2.9a40.13,40.13,0,0,0,5.64-.353,7.92,7.92,0,0,1-.276-1.076A39.562,39.562,0,0,1,391.988,87.654Zm20-6.137a.552.552,0,0,0-.782,0l-5.942,5.942-2.209-2.21a.553.553,0,1,0-.783.782l2.6,2.6a.554.554,0,0,0,.782,0l6.333-6.333A.554.554,0,0,0,411.984,81.517Zm-.341,6.154a.553.553,0,0,0-.709.329,5.935,5.935,0,1,1-2.417-7.052.553.553,0,0,0,.59-.936,7.039,7.039,0,1,0,2.865,8.368A.552.552,0,0,0,411.643,87.67Z" transform="translate(192.854 626.94)"/></g></svg>