<svg xmlns="http://www.w3.org/2000/svg" width="24" height="24" viewBox="0 0 24 24"><defs><style>.a{fill:#fff;opacity:0;}.b{fill:gray;}</style></defs><g transform="translate(-272 2216.103)"><rect class="a" width="24" height="24" transform="translate(272 -2216.103)"/><g transform="translate(272 -2213.766)"><g transform="translate(4.155 0)"><path class="b" d="M330.644,79.934h-18.9a.424.424,0,0,1-.423-.424v-6a.424.424,0,1,1,.847,0v5.578h18.055V61.031H312.166v5.58a.424.424,0,0,1-.847,0v-6a.424.424,0,0,1,.423-.424h18.9a.424.424,0,0,1,.424.424v18.9A.424.424,0,0,1,330.644,79.934Z" transform="translate(-311.319 -60.184)"/></g><g transform="translate(0 9.451)"><path class="b" d="M323.6,72.843H306.551a.424.424,0,1,1,0-.848H323.6a.424.424,0,1,1,0,.848Z" transform="translate(-306.127 -71.995)"/></g><g transform="translate(13.598 6.003)"><path class="b" d="M323.544,75.431a.424.424,0,0,1-.3-.723l3.149-3.15-3.149-3.149a.424.424,0,1,1,.6-.6l3.449,3.448a.424.424,0,0,1,0,.6l-3.449,3.45A.425.425,0,0,1,323.544,75.431Z" transform="translate(-323.121 -67.686)"/></g></g></g></svg>