<svg xmlns="http://www.w3.org/2000/svg" xmlns:xlink="http://www.w3.org/1999/xlink" width="60" height="60" viewBox="0 0 60 60"><defs><style>.a{fill:#63c3d1;}.b{fill:#fff;}.c{filter:url(#a);}</style><filter id="a" x="0" y="0" width="60" height="60" filterUnits="userSpaceOnUse"><feOffset dy="3" input="SourceAlpha"/><feGaussianBlur stdDeviation="3" result="b"/><feFlood flood-opacity="0.161"/><feComposite operator="in" in2="b"/><feComposite in="SourceGraphic"/></filter></defs><g transform="translate(9 6.36)"><g class="c" transform="matrix(1, 0, 0, 1, -9, -6.36)"><circle class="a" cx="21" cy="21" r="21" transform="translate(9 6)"/></g><g transform="translate(6.992 6.993)"><path class="b" d="M25.1,5.374A7.916,7.916,0,0,0,19.24,18.628l-.959.96-1.124-1.124a.649.649,0,0,0-.92,0L5.564,29.136a.649.649,0,0,0,0,.92l2.781,2.781a.649.649,0,0,0,.92,0L19.938,22.164a.652.652,0,0,0,0-.92l-.737-.735.989-.989A7.926,7.926,0,1,0,25.1,5.374ZM8.806,31.457,6.944,29.6,16.7,19.844l1.124,1.124h0l.735.735ZM25.1,19.934a6.629,6.629,0,1,1,6.629-6.63A6.638,6.638,0,0,1,25.1,19.934Z" transform="translate(-5.373 -5.374)"/><path class="b" d="M24.461,10.968a.649.649,0,0,0-.651.651,3.131,3.131,0,0,1-3.127,3.127.651.651,0,0,0,0,1.3,4.433,4.433,0,0,0,4.428-4.428A.65.65,0,0,0,24.461,10.968Z" transform="translate(-0.957 -3.689)"/></g></g></svg>