<svg xmlns="http://www.w3.org/2000/svg" width="73.866" height="73.867" viewBox="0 0 73.866 73.867"><defs><style>.a{fill:#63c3d1;}</style></defs><path class="a" d="M50.388,38.789,42.5,39.941a3.02,3.02,0,0,0-2.552,2.552l-1.152,7.89a3.02,3.02,0,0,1-2.552,2.552l-7.89,1.152A3.02,3.02,0,0,0,25.8,56.64l-1.152,7.89A3.02,3.02,0,0,1,22.1,67.082L14.2,68.234a3.019,3.019,0,0,0-2.552,2.552l-1.18,8.08L5,78.067,6.777,65.911a3.02,3.02,0,0,1,2.552-2.552l7.891-1.153a3.02,3.02,0,0,0,2.552-2.552l1.152-7.89a3.02,3.02,0,0,1,2.552-2.552l7.89-1.152a3.02,3.02,0,0,0,2.552-2.552l1.152-7.89a3.02,3.02,0,0,1,2.552-2.552l7.89-1.152a3.02,3.02,0,0,0,2.552-2.552l1.151-7.889a3.02,3.02,0,0,1,2.552-2.552l7.89-1.152a3.02,3.02,0,0,0,2.552-2.552l1.152-7.89a3.02,3.02,0,0,1,2.552-2.552L78.069,5l.8,5.471L70.789,11.65A3.02,3.02,0,0,0,68.237,14.2l-1.152,7.89a3.02,3.02,0,0,1-2.552,2.552L56.643,25.8a3.02,3.02,0,0,0-2.552,2.552L52.94,36.237A3.02,3.02,0,0,1,50.388,38.789Z" transform="translate(-5.001 -5)"/></svg>